<?xml version="1.0" encoding="UTF-8" standalone="no"?>
<!DOCTYPE svg PUBLIC "-//W3C//DTD SVG 1.1//EN"
 "http://www.w3.org/Graphics/SVG/1.1/DTD/svg11.dtd">
<!-- Generated by graphviz version 14.0.4 (20251115.1723)
 -->
<!-- Title: dependency_graph Pages: 1 -->
<svg width="725pt" height="637pt"
 viewBox="0.00 0.00 725.00 637.00" xmlns="http://www.w3.org/2000/svg" xmlns:xlink="http://www.w3.org/1999/xlink">
<g id="graph0" class="graph" transform="scale(1 1) rotate(0) translate(4 632.75)">
<title>dependency_graph</title>
<polygon fill="white" stroke="none" points="-4,4 -4,-632.75 720.75,-632.75 720.75,4 -4,4"/>
<text xml:space="preserve" text-anchor="middle" x="358.38" y="-605.75" font-family="Helvetica,sans-Serif" font-weight="bold" font-size="20.00">Crate Dependency Graph</text>
<g id="clust1" class="cluster">
<title>cluster_legend</title>
<polygon fill="none" stroke="black" stroke-dasharray="5,2" points="8,-8 8,-192.75 314,-192.75 314,-8 8,-8"/>
<text xml:space="preserve" text-anchor="middle" x="161" y="-14" font-family="Helvetica,sans-Serif" font-size="20.00">Legend</text>
</g>
<!-- l1 -->
<g id="node1" class="node">
<title>l1</title>
<polygon fill="none" stroke="black" points="77,-81 41,-81 41,-45 77,-45 77,-81"/>
<text xml:space="preserve" text-anchor="middle" x="59" y="-58.55" font-family="Helvetica,sans-Serif" font-size="11.00">A</text>
</g>
<!-- l2 -->
<g id="node2" class="node">
<title>l2</title>
<polygon fill="none" stroke="black" points="77,-184.75 41,-184.75 41,-148.75 77,-148.75 77,-184.75"/>
<text xml:space="preserve" text-anchor="middle" x="59" y="-162.3" font-family="Helvetica,sans-Serif" font-size="11.00">B</text>
</g>
<!-- l1&#45;&gt;l2 -->
<g id="edge1" class="edge">
<title>l1&#45;&gt;l2</title>
<path fill="none" stroke="#228b22" d="M56.54,-81.43C55.45,-90.02 54.29,-100.53 53.75,-110 53.24,-118.94 53.78,-128.67 54.68,-137.46"/>
<polygon fill="#228b22" stroke="#228b22" points="51.18,-137.69 55.87,-147.19 58.13,-136.84 51.18,-137.69"/>
<text xml:space="preserve" text-anchor="middle" x="86.38" y="-111.2" font-family="Helvetica,sans-Serif" font-size="9.00" fill="#228b22">A depends on B</text>
</g>
<!-- l3 -->
<g id="node3" class="node">
<title>l3</title>
<polygon fill="none" stroke="black" points="190,-81 154,-81 154,-45 190,-45 190,-81"/>
<text xml:space="preserve" text-anchor="middle" x="172" y="-58.55" font-family="Helvetica,sans-Serif" font-size="11.00">C</text>
</g>
<!-- l4 -->
<g id="node4" class="node">
<title>l4</title>
<polygon fill="none" stroke="black" points="190,-184.75 154,-184.75 154,-148.75 190,-148.75 190,-184.75"/>
<text xml:space="preserve" text-anchor="middle" x="172" y="-162.3" font-family="Helvetica,sans-Serif" font-size="11.00">D</text>
</g>
<!-- l3&#45;&gt;l4 -->
<g id="edge2" class="edge">
<title>l3&#45;&gt;l4</title>
<path fill="none" stroke="#4169e1" stroke-dasharray="5,2" d="M169.48,-81.06C168.13,-92.09 166.87,-106.75 167.5,-119.75 167.77,-125.37 168.24,-131.35 168.76,-137.09"/>
<polygon fill="#4169e1" stroke="#4169e1" points="165.25,-137.2 169.74,-146.8 172.22,-136.5 165.25,-137.2"/>
<text xml:space="preserve" text-anchor="middle" x="190.75" y="-111.2" font-family="Helvetica,sans-Serif" font-size="9.00" fill="#4169e1">proc&#45;macro</text>
</g>
<!-- l5 -->
<g id="node5" class="node">
<title>l5</title>
<polygon fill="none" stroke="black" points="285,-81 249,-81 249,-45 285,-45 285,-81"/>
<text xml:space="preserve" text-anchor="middle" x="267" y="-58.55" font-family="Helvetica,sans-Serif" font-size="11.00">E</text>
</g>
<!-- l6 -->
<g id="node6" class="node">
<title>l6</title>
<polygon fill="none" stroke="black" points="285,-184.75 249,-184.75 249,-148.75 285,-148.75 285,-184.75"/>
<text xml:space="preserve" text-anchor="middle" x="267" y="-162.3" font-family="Helvetica,sans-Serif" font-size="11.00">F</text>
</g>
<!-- l5&#45;&gt;l6 -->
<g id="edge3" class="edge">
<title>l5&#45;&gt;l6</title>
<path fill="none" stroke="#b8860b" stroke-dasharray="1,5" d="M267,-81.26C267,-96.54 267,-119.13 267,-137.11"/>
<polygon fill="#b8860b" stroke="#b8860b" points="263.5,-136.89 267,-146.89 270.5,-136.89 263.5,-136.89"/>
<text xml:space="preserve" text-anchor="middle" x="286.5" y="-111.2" font-family="Helvetica,sans-Serif" font-size="9.00" fill="#b8860b">build&#45;dep</text>
</g>
<!-- core -->
<g id="node7" class="node">
<title>core</title>
<polygon fill="none" stroke="black" points="562,-599.75 498,-599.75 498,-563.75 562,-563.75 562,-599.75"/>
<text xml:space="preserve" text-anchor="middle" x="530" y="-577.3" font-family="Helvetica,sans-Serif" font-size="11.00">facet&#45;core</text>
</g>
<!-- macros_impl -->
<g id="node8" class="node">
<title>macros_impl</title>
<polygon fill="none" stroke="black" points="661.75,-496 560.25,-496 560.25,-460 661.75,-460 661.75,-496"/>
<text xml:space="preserve" text-anchor="middle" x="611" y="-479.55" font-family="Helvetica,sans-Serif" font-size="11.00">facet&#45;macros&#45;impl</text>
<text xml:space="preserve" text-anchor="middle" x="611" y="-467.55" font-family="Helvetica,sans-Serif" font-size="11.00">(impl library)</text>
</g>
<!-- macros_impl&#45;&gt;core -->
<g id="edge5" class="edge">
<title>macros_impl&#45;&gt;core</title>
<path fill="none" stroke="#4169e1" stroke-dasharray="5,2" d="M597.26,-496.26C584.58,-512.19 565.55,-536.09 550.97,-554.41"/>
<polygon fill="#4169e1" stroke="#4169e1" points="548.24,-552.22 544.75,-562.22 553.72,-556.58 548.24,-552.22"/>
<text xml:space="preserve" text-anchor="middle" x="586.8" y="-526.2" font-family="Helvetica,sans-Serif" font-size="9.00" fill="#4169e1">(types)</text>
</g>
<!-- macros -->
<g id="node9" class="node">
<title>macros</title>
<polygon fill="none" stroke="black" points="644.12,-392.25 565.88,-392.25 565.88,-356.25 644.12,-356.25 644.12,-392.25"/>
<text xml:space="preserve" text-anchor="middle" x="605" y="-375.8" font-family="Helvetica,sans-Serif" font-size="11.00">facet&#45;macros</text>
<text xml:space="preserve" text-anchor="middle" x="605" y="-363.8" font-family="Helvetica,sans-Serif" font-size="11.00">(proc&#45;macro)</text>
</g>
<!-- macros&#45;&gt;macros_impl -->
<g id="edge6" class="edge">
<title>macros&#45;&gt;macros_impl</title>
<path fill="none" stroke="#4169e1" stroke-dasharray="5,2" d="M606.02,-392.51C606.92,-407.79 608.25,-430.38 609.31,-448.36"/>
<polygon fill="#4169e1" stroke="#4169e1" points="605.81,-448.37 609.89,-458.14 612.79,-447.96 605.81,-448.37"/>
<text xml:space="preserve" text-anchor="middle" x="620.93" y="-422.45" font-family="Helvetica,sans-Serif" font-size="9.00" fill="#4169e1">(logic)</text>
</g>
<!-- facet -->
<g id="node10" class="node">
<title>facet</title>
<polygon fill="none" stroke="black" points="557,-288.5 503,-288.5 503,-252.5 557,-252.5 557,-288.5"/>
<text xml:space="preserve" text-anchor="middle" x="530" y="-266.05" font-family="Helvetica,sans-Serif" font-size="11.00">facet</text>
</g>
<!-- facet&#45;&gt;core -->
<g id="edge4" class="edge">
<title>facet&#45;&gt;core</title>
<path fill="none" stroke="#228b22" d="M530,-288.57C530,-339.14 530,-488.59 530,-551.9"/>
<polygon fill="#228b22" stroke="#228b22" points="526.5,-551.84 530,-561.84 533.5,-551.84 526.5,-551.84"/>
<text xml:space="preserve" text-anchor="middle" x="545.38" y="-422.45" font-family="Helvetica,sans-Serif" font-size="9.00" fill="#228b22">runtime</text>
</g>
<!-- facet&#45;&gt;macros -->
<g id="edge7" class="edge">
<title>facet&#45;&gt;macros</title>
<path fill="none" stroke="#4169e1" stroke-dasharray="5,2" d="M542.72,-288.76C554.41,-304.62 571.92,-328.37 585.4,-346.65"/>
<polygon fill="#4169e1" stroke="#4169e1" points="582.57,-348.71 591.32,-354.69 588.2,-344.56 582.57,-348.71"/>
<text xml:space="preserve" text-anchor="middle" x="593" y="-318.7" font-family="Helvetica,sans-Serif" font-size="9.00" fill="#4169e1">proc&#45;macro</text>
</g>
<!-- kdl -->
<g id="node11" class="node">
<title>kdl</title>
<polygon fill="none" stroke="black" points="501.25,-184.75 444.75,-184.75 444.75,-148.75 501.25,-148.75 501.25,-184.75"/>
<text xml:space="preserve" text-anchor="middle" x="473" y="-162.3" font-family="Helvetica,sans-Serif" font-size="11.00">facet&#45;kdl</text>
</g>
<!-- kdl&#45;&gt;facet -->
<g id="edge8" class="edge">
<title>kdl&#45;&gt;facet</title>
<path fill="none" stroke="#228b22" d="M482.67,-185.01C491.43,-200.65 504.49,-223.96 514.67,-242.14"/>
<polygon fill="#228b22" stroke="#228b22" points="511.6,-243.82 519.54,-250.83 517.71,-240.4 511.6,-243.82"/>
<text xml:space="preserve" text-anchor="middle" x="518.58" y="-214.95" font-family="Helvetica,sans-Serif" font-size="9.00" fill="#228b22">runtime</text>
</g>
<!-- args -->
<g id="node12" class="node">
<title>args</title>
<polygon fill="none" stroke="black" points="608,-184.75 544,-184.75 544,-148.75 608,-148.75 608,-184.75"/>
<text xml:space="preserve" text-anchor="middle" x="576" y="-162.3" font-family="Helvetica,sans-Serif" font-size="11.00">facet&#45;args</text>
</g>
<!-- args&#45;&gt;facet -->
<g id="edge9" class="edge">
<title>args&#45;&gt;facet</title>
<path fill="none" stroke="#228b22" d="M568.2,-185.01C561.16,-200.58 550.68,-223.75 542.48,-241.89"/>
<polygon fill="#228b22" stroke="#228b22" points="539.4,-240.22 538.47,-250.78 545.77,-243.11 539.4,-240.22"/>
<text xml:space="preserve" text-anchor="middle" x="569.75" y="-214.95" font-family="Helvetica,sans-Serif" font-size="9.00" fill="#228b22">runtime</text>
</g>
<!-- yaml -->
<g id="node13" class="node">
<title>yaml</title>
<polygon fill="none" stroke="black" points="716.75,-184.75 651.25,-184.75 651.25,-148.75 716.75,-148.75 716.75,-184.75"/>
<text xml:space="preserve" text-anchor="middle" x="684" y="-162.3" font-family="Helvetica,sans-Serif" font-size="11.00">facet&#45;yaml</text>
</g>
<!-- yaml&#45;&gt;facet -->
<g id="edge10" class="edge">
<title>yaml&#45;&gt;facet</title>
<path fill="none" stroke="#228b22" d="M657.53,-185.24C632.22,-201.96 593.87,-227.3 565.83,-245.82"/>
<polygon fill="#228b22" stroke="#228b22" points="564.06,-242.8 557.65,-251.23 567.92,-248.64 564.06,-242.8"/>
<text xml:space="preserve" text-anchor="middle" x="626.99" y="-214.95" font-family="Helvetica,sans-Serif" font-size="9.00" fill="#228b22">runtime</text>
</g>
<!-- user -->
<g id="node14" class="node">
<title>user</title>
<polygon fill="none" stroke="black" stroke-dasharray="5,2" points="505,-81 441,-81 441,-45 505,-45 505,-81"/>
<text xml:space="preserve" text-anchor="middle" x="473" y="-58.55" font-family="Helvetica,sans-Serif" font-size="11.00">user crate</text>
</g>
<!-- user&#45;&gt;facet -->
<g id="edge11" class="edge">
<title>user&#45;&gt;facet</title>
<path fill="none" stroke="#228b22" d="M448.45,-81.3C416.79,-105.83 368.46,-152.26 392.25,-192.75 413.62,-229.12 459.17,-249.51 492.05,-259.98"/>
<polygon fill="#228b22" stroke="#228b22" points="490.62,-263.21 501.21,-262.73 492.63,-256.51 490.62,-263.21"/>
<text xml:space="preserve" text-anchor="middle" x="407.62" y="-163.07" font-family="Helvetica,sans-Serif" font-size="9.00" fill="#228b22">runtime</text>
</g>
<!-- user&#45;&gt;kdl -->
<g id="edge12" class="edge">
<title>user&#45;&gt;kdl</title>
<path fill="none" stroke="#228b22" d="M473,-81.26C473,-96.54 473,-119.13 473,-137.11"/>
<polygon fill="#228b22" stroke="#228b22" points="469.5,-136.89 473,-146.89 476.5,-136.89 469.5,-136.89"/>
<text xml:space="preserve" text-anchor="middle" x="488.38" y="-111.2" font-family="Helvetica,sans-Serif" font-size="9.00" fill="#228b22">runtime</text>
</g>
<!-- user&#45;&gt;args -->
<g id="edge13" class="edge">
<title>user&#45;&gt;args</title>
<path fill="none" stroke="#228b22" d="M490.47,-81.26C506.9,-97.49 531.68,-121.97 550.35,-140.41"/>
<polygon fill="#228b22" stroke="#228b22" points="547.79,-142.8 557.36,-147.34 552.71,-137.82 547.79,-142.8"/>
<text xml:space="preserve" text-anchor="middle" x="542.96" y="-111.2" font-family="Helvetica,sans-Serif" font-size="9.00" fill="#228b22">runtime</text>
</g>
</g>
</svg>
