<?xml version="1.0" encoding="UTF-8" standalone="no"?>
<!DOCTYPE svg PUBLIC "-//W3C//DTD SVG 1.1//EN"
 "http://www.w3.org/Graphics/SVG/1.1/DTD/svg11.dtd">
<!-- Generated by graphviz version 14.0.4 (20251115.1723)
 -->
<!-- Title: error_flow Pages: 1 -->
<svg width="305pt" height="715pt"
 viewBox="0.00 0.00 305.00 715.00" xmlns="http://www.w3.org/2000/svg" xmlns:xlink="http://www.w3.org/1999/xlink">
<g id="graph0" class="graph" transform="scale(1 1) rotate(0) translate(4 711.25)">
<title>error_flow</title>
<polygon fill="white" stroke="none" points="-4,4 -4,-711.25 300.75,-711.25 300.75,4 -4,4"/>
<text xml:space="preserve" text-anchor="middle" x="148.38" y="-684.25" font-family="Helvetica,sans-Serif" font-weight="bold" font-size="20.00">Error Flow (typo handling)</text>
<!-- typo -->
<g id="node1" class="node">
<title>typo</title>
<polygon fill="#fff8f0" stroke="black" points="269.75,-678.25 27,-678.25 27,-615.5 269.75,-615.5 269.75,-678.25"/>
<polygon fill="#fff8f0" stroke="none" points="35,-656 35,-674.25 261.75,-674.25 261.75,-656 35,-656"/>
<text xml:space="preserve" text-anchor="start" x="37" y="-662.8" font-family="Monaco, Consolas, Courier" font-weight="bold" font-size="11.00">User code with typo</text>
<text xml:space="preserve" text-anchor="start" x="37" y="-644.55" font-family="Monaco" font-size="11.00">#[</text>
<text xml:space="preserve" text-anchor="start" x="50.5" y="-644.55" font-family="Monaco" font-size="11.00" fill="#8250df">facet</text>
<text xml:space="preserve" text-anchor="start" x="84.25" y="-644.55" font-family="Monaco" font-size="11.00">(orm::</text>
<text xml:space="preserve" text-anchor="start" x="124.75" y="-644.55" font-family="Monaco" font-size="11.00" fill="#dc3545">colum</text>
<text xml:space="preserve" text-anchor="start" x="158.5" y="-644.55" font-family="Monaco" font-size="11.00">(primary_key))]</text>
<text xml:space="preserve" text-anchor="start" x="37" y="-625.3" font-family="Monaco, Consolas, Courier" font-size="11.00" fill="#dc3545"> &#160;&#160;&#160;&#160;&#160;&#160;&#160;&#160;&#160;&#160;&#160;&#160;&#160;^^^^^ typo!</text>
</g>
<!-- dispatch -->
<g id="node2" class="node">
<title>dispatch</title>
<polygon fill="#e8e8f4" stroke="black" points="256.25,-568.25 40.5,-568.25 40.5,-487.25 256.25,-487.25 256.25,-568.25"/>
<polygon fill="#e8e8f4" stroke="none" points="48.5,-546 48.5,-564.25 248.25,-564.25 248.25,-546 48.5,-546"/>
<text xml:space="preserve" text-anchor="start" x="91" y="-552.8" font-family="Monaco, Consolas, Courier" font-weight="bold" font-size="11.00">facet&#45;macros&#45;impl</text>
<text xml:space="preserve" text-anchor="start" x="64" y="-534.55" font-family="Monaco" font-size="11.00">::facet::</text>
<text xml:space="preserve" text-anchor="start" x="124.75" y="-534.55" font-family="Monaco" font-size="11.00" fill="#8250df">__dispatch_attr!</text>
<text xml:space="preserve" text-anchor="start" x="50.5" y="-516.3" font-family="Monaco, Consolas, Courier" font-size="11.00">Looks up </text>
<text xml:space="preserve" text-anchor="start" x="111.25" y="-516.3" font-family="Monaco" font-size="11.00" fill="#dc3545">&#39;colum&#39;</text>
<text xml:space="preserve" text-anchor="start" x="158.5" y="-516.3" font-family="Monaco, Consolas, Courier" font-size="11.00"> in @variants</text>
<text xml:space="preserve" text-anchor="start" x="114.62" y="-498.05" font-family="Monaco, Consolas, Courier" font-weight="bold" font-size="11.00">Not found!</text>
</g>
<!-- typo&#45;&gt;dispatch -->
<g id="edge1" class="edge">
<title>typo&#45;&gt;dispatch</title>
<path fill="none" stroke="#666666" d="M148.38,-615.1C148.38,-604.32 148.38,-591.89 148.38,-579.89"/>
<polygon fill="#666666" stroke="#666666" points="151.88,-580.1 148.38,-570.1 144.88,-580.1 151.88,-580.1"/>
<text xml:space="preserve" text-anchor="middle" x="177.62" y="-588" font-family="Helvetica,sans-Serif" font-size="10.00">processed by</text>
</g>
<!-- attr_error -->
<g id="node3" class="node">
<title>attr_error</title>
<polygon fill="#fff9e6" stroke="black" points="296.75,-440 0,-440 0,-322.5 296.75,-322.5 296.75,-440"/>
<polygon fill="#fff3cd" stroke="none" points="8,-417.75 8,-436 288.75,-436 288.75,-417.75 8,-417.75"/>
<text xml:space="preserve" text-anchor="start" x="10" y="-424.55" font-family="Monaco, Consolas, Courier" font-weight="bold" font-size="11.00">facet&#45;macros&#45;impl</text>
<text xml:space="preserve" text-anchor="start" x="10" y="-406.3" font-family="Monaco" font-size="11.00">::facet::</text>
<text xml:space="preserve" text-anchor="start" x="70.75" y="-406.3" font-family="Monaco" font-size="11.00" fill="#8250df">__attr_error!</text>
<text xml:space="preserve" text-anchor="start" x="158.5" y="-406.3" font-family="Monaco" font-size="11.00"> {</text>
<text xml:space="preserve" text-anchor="start" x="10" y="-388.05" font-family="Monaco" font-size="11.00"> &#160;&#160;&#160;</text>
<text xml:space="preserve" text-anchor="start" x="37" y="-388.05" font-family="Monaco" font-size="11.00" fill="#8250df">@known_attrs</text>
<text xml:space="preserve" text-anchor="start" x="118" y="-388.05" font-family="Monaco" font-size="11.00"> { skip, column, rename }</text>
<text xml:space="preserve" text-anchor="start" x="10" y="-369.8" font-family="Monaco" font-size="11.00"> &#160;&#160;&#160;</text>
<text xml:space="preserve" text-anchor="start" x="37" y="-369.8" font-family="Monaco" font-size="11.00" fill="#8250df">@got_name</text>
<text xml:space="preserve" text-anchor="start" x="97.75" y="-369.8" font-family="Monaco" font-size="11.00"> { </text>
<text xml:space="preserve" text-anchor="start" x="118" y="-369.8" font-family="Monaco" font-size="11.00" fill="#dc3545">colum</text>
<text xml:space="preserve" text-anchor="start" x="151.75" y="-369.8" font-family="Monaco" font-size="11.00"> }</text>
<text xml:space="preserve" text-anchor="start" x="10" y="-351.55" font-family="Monaco" font-size="11.00"> &#160;&#160;&#160;</text>
<text xml:space="preserve" text-anchor="start" x="37" y="-351.55" font-family="Monaco" font-size="11.00" fill="#8250df">@got_span</text>
<text xml:space="preserve" text-anchor="start" x="97.75" y="-351.55" font-family="Monaco" font-size="11.00"> { ... }</text>
<text xml:space="preserve" text-anchor="start" x="10" y="-332.3" font-family="Monaco" font-size="11.00">}</text>
</g>
<!-- dispatch&#45;&gt;attr_error -->
<g id="edge2" class="edge">
<title>dispatch&#45;&gt;attr_error</title>
<path fill="none" stroke="#dc3545" stroke-width="2" d="M148.38,-486.88C148.38,-476.44 148.38,-464.87 148.38,-453.33"/>
<polygon fill="#dc3545" stroke="#dc3545" stroke-width="2" points="151.88,-453.41 148.38,-443.41 144.88,-453.41 151.88,-453.41"/>
<text xml:space="preserve" text-anchor="middle" x="184.75" y="-459.75" font-family="Helvetica,sans-Serif" font-size="10.00">variant not found</text>
</g>
<!-- strsim -->
<g id="node4" class="node">
<title>strsim</title>
<polygon fill="#e8f5e9" stroke="black" points="290,-275.25 6.75,-275.25 6.75,-194.25 290,-194.25 290,-275.25"/>
<polygon fill="#e8f5e9" stroke="none" points="14.75,-253 14.75,-271.25 282,-271.25 282,-253 14.75,-253"/>
<text xml:space="preserve" text-anchor="start" x="107.88" y="-259.8" font-family="Monaco, Consolas, Courier" font-weight="bold" font-size="11.00">strsim crate</text>
<text xml:space="preserve" text-anchor="start" x="16.75" y="-241.55" font-family="Monaco" font-size="11.00">strsim::jaro_winkler(</text>
<text xml:space="preserve" text-anchor="start" x="158.5" y="-241.55" font-family="Monaco" font-size="11.00" fill="#0a3069">&quot;colum&quot;</text>
<text xml:space="preserve" text-anchor="start" x="205.75" y="-241.55" font-family="Monaco" font-size="11.00">, </text>
<text xml:space="preserve" text-anchor="start" x="219.25" y="-241.55" font-family="Monaco" font-size="11.00" fill="#0a3069">&quot;column&quot;</text>
<text xml:space="preserve" text-anchor="start" x="273.25" y="-241.55" font-family="Monaco" font-size="11.00">)</text>
<text xml:space="preserve" text-anchor="start" x="47.12" y="-223.3" font-family="Monaco, Consolas, Courier" font-size="11.00">Returns </text>
<text xml:space="preserve" text-anchor="start" x="101.12" y="-223.3" font-family="Monaco" font-size="11.00">0.96</text>
<text xml:space="preserve" text-anchor="start" x="128.12" y="-223.3" font-family="Monaco, Consolas, Courier" font-size="11.00"> (high similarity)</text>
<text xml:space="preserve" text-anchor="start" x="80.88" y="-205.05" font-family="Monaco, Consolas, Courier" font-size="11.00">Best match: </text>
<text xml:space="preserve" text-anchor="start" x="161.88" y="-205.05" font-family="Monaco" font-size="11.00" fill="#228b22">&quot;column&quot;</text>
</g>
<!-- attr_error&#45;&gt;strsim -->
<g id="edge3" class="edge">
<title>attr_error&#45;&gt;strsim</title>
<path fill="none" stroke="#666666" d="M148.38,-322.31C148.38,-310.53 148.38,-298.23 148.38,-286.71"/>
<polygon fill="#666666" stroke="#666666" points="151.88,-287.02 148.38,-277.02 144.88,-287.02 151.88,-287.02"/>
<text xml:space="preserve" text-anchor="middle" x="172" y="-295" font-family="Helvetica,sans-Serif" font-size="10.00">find similar</text>
</g>
<!-- error_output -->
<g id="node5" class="node">
<title>error_output</title>
<polygon fill="#f8d7da" stroke="black" points="273.12,-135.75 23.63,-135.75 23.63,0 273.12,0 273.12,-135.75"/>
<polygon fill="#f8d7da" stroke="none" points="31.62,-113.5 31.62,-131.75 265.12,-131.75 265.12,-113.5 31.62,-113.5"/>
<text xml:space="preserve" text-anchor="start" x="33.62" y="-120.3" font-family="Monaco, Consolas, Courier" font-weight="bold" font-size="11.00">Compiler output</text>
<text xml:space="preserve" text-anchor="start" x="33.62" y="-101.05" font-family="Monaco" font-size="11.00" fill="#dc3545">error: unknown attribute `colum`</text>
<text xml:space="preserve" text-anchor="start" x="33.62" y="-82.8" font-family="Monaco" font-size="11.00" fill="#dc3545"> &#160;&#160;&#160;&#160;&#160;&#160;did you mean `column`?</text>
<text xml:space="preserve" text-anchor="start" x="33.62" y="-64.55" font-family="Monaco" font-size="11.00"> &#160;&#45;&#45;&gt; src/lib.rs:3:13</text>
<text xml:space="preserve" text-anchor="start" x="33.62" y="-46.3" font-family="Monaco" font-size="11.00"> &#160;&#160;|</text>
<text xml:space="preserve" text-anchor="start" x="33.62" y="-28.05" font-family="Monaco" font-size="11.00">3 &#160;| &#160;&#160;&#160;&#160;#[facet(orm::colum(...))]</text>
<text xml:space="preserve" text-anchor="start" x="33.62" y="-10.8" font-family="Monaco" font-size="11.00"> &#160;&#160;| &#160;&#160;&#160;&#160;&#160;&#160;&#160;&#160;&#160;&#160;&#160;&#160;&#160;&#160;&#160;&#160;&#160;</text>
<text xml:space="preserve" text-anchor="start" x="182.12" y="-10.8" font-family="Monaco" font-size="11.00" fill="#dc3545">^^^^^</text>
</g>
<!-- strsim&#45;&gt;error_output -->
<g id="edge4" class="edge">
<title>strsim&#45;&gt;error_output</title>
<path fill="none" stroke="#dc3545" stroke-width="2" d="M148.38,-193.84C148.38,-180.29 148.38,-164.63 148.38,-149.07"/>
<polygon fill="#dc3545" stroke="#dc3545" stroke-width="2" points="151.88,-149.1 148.38,-139.1 144.88,-149.1 151.88,-149.1"/>
<text xml:space="preserve" text-anchor="middle" x="186.25" y="-166.75" font-family="Helvetica,sans-Serif" font-size="10.00">compile_error!</text>
<text xml:space="preserve" text-anchor="middle" x="186.25" y="-155.5" font-family="Helvetica,sans-Serif" font-size="10.00">with original span</text>
</g>
</g>
</svg>
