<?xml version="1.0" encoding="UTF-8" standalone="no"?>
<!DOCTYPE svg PUBLIC "-//W3C//DTD SVG 1.1//EN"
 "http://www.w3.org/Graphics/SVG/1.1/DTD/svg11.dtd">
<!-- Generated by graphviz version 14.0.4 (20251115.1723)
 -->
<!-- Title: storage_model Pages: 1 -->
<svg width="877pt" height="352pt"
 viewBox="0.00 0.00 877.00 352.00" xmlns="http://www.w3.org/2000/svg" xmlns:xlink="http://www.w3.org/1999/xlink">
<g id="graph0" class="graph" transform="scale(1 1) rotate(0) translate(4 348)">
<title>storage_model</title>
<polygon fill="white" stroke="none" points="-4,4 -4,-348 872.5,-348 872.5,4 -4,4"/>
<text xml:space="preserve" text-anchor="middle" x="434.25" y="-321" font-family="Helvetica,sans-Serif" font-weight="bold" font-size="20.00">Storage Model: Unified Attr type</text>
<g id="clust1" class="cluster">
<title>cluster_input</title>
<polygon fill="none" stroke="black" stroke-dasharray="5,2" points="8,-63 8,-251 239.75,-251 239.75,-63 8,-63"/>
<text xml:space="preserve" text-anchor="middle" x="123.88" y="-228" font-family="Helvetica,sans-Serif" font-size="20.00">User writes</text>
</g>
<g id="clust2" class="cluster">
<title>cluster_output</title>
<polygon fill="none" stroke="black" stroke-dasharray="5,2" points="259.75,-8 259.75,-307 568.25,-307 568.25,-8 259.75,-8"/>
<text xml:space="preserve" text-anchor="middle" x="414" y="-284" font-family="Helvetica,sans-Serif" font-size="20.00">All become ::facet_core::Attribute</text>
</g>
<g id="clust3" class="cluster">
<title>cluster_storage</title>
<polygon fill="none" stroke="black" stroke-dasharray="5,2" points="588.25,-8 588.25,-307 860.5,-307 860.5,-8 588.25,-8"/>
<text xml:space="preserve" text-anchor="middle" x="724.38" y="-284" font-family="Helvetica,sans-Serif" font-size="20.00">Stored in Shape metadata</text>
</g>
<!-- builtin -->
<g id="node1" class="node">
<title>builtin</title>
<polygon fill="#fff8f0" stroke="black" points="231.75,-133.38 16,-133.38 16,-70.62 231.75,-70.62 231.75,-133.38"/>
<polygon fill="#fff8f0" stroke="none" points="24,-111.12 24,-129.38 223.75,-129.38 223.75,-111.12 24,-111.12"/>
<text xml:space="preserve" text-anchor="start" x="26" y="-117.92" font-family="Monaco, Consolas, Courier" font-weight="bold" font-size="11.00">Built&#45;in attrs (no namespace)</text>
<text xml:space="preserve" text-anchor="start" x="26" y="-99.67" font-family="Monaco" font-size="11.00">#[</text>
<text xml:space="preserve" text-anchor="start" x="39.5" y="-99.67" font-family="Monaco" font-size="11.00" fill="#8250df">facet</text>
<text xml:space="preserve" text-anchor="start" x="73.25" y="-99.67" font-family="Monaco" font-size="11.00">(skip)]</text>
<text xml:space="preserve" text-anchor="start" x="26" y="-81.42" font-family="Monaco" font-size="11.00">#[</text>
<text xml:space="preserve" text-anchor="start" x="39.5" y="-81.42" font-family="Monaco" font-size="11.00" fill="#8250df">facet</text>
<text xml:space="preserve" text-anchor="start" x="73.25" y="-81.42" font-family="Monaco" font-size="11.00">(rename = </text>
<text xml:space="preserve" text-anchor="start" x="140.75" y="-81.42" font-family="Monaco" font-size="11.00" fill="#0a3069">&quot;foo&quot;</text>
<text xml:space="preserve" text-anchor="start" x="174.5" y="-81.42" font-family="Monaco" font-size="11.00">)]</text>
</g>
<!-- ext1 -->
<g id="node3" class="node">
<title>ext1</title>
<polygon fill="#e8f5e9" stroke="black" points="534.88,-133.75 292.12,-133.75 292.12,-16.25 534.88,-16.25 534.88,-133.75"/>
<text xml:space="preserve" text-anchor="start" x="302.12" y="-118.3" font-family="Monaco" font-size="11.00">::facet_core::</text>
<text xml:space="preserve" text-anchor="start" x="396.62" y="-118.3" font-family="Monaco" font-size="11.00" fill="#0550ae">Attribute</text>
<text xml:space="preserve" text-anchor="start" x="457.38" y="-118.3" font-family="Monaco" font-size="11.00"> {</text>
<text xml:space="preserve" text-anchor="start" x="302.12" y="-100.05" font-family="Monaco" font-size="11.00"> &#160;&#160;&#160;ns: </text>
<text xml:space="preserve" text-anchor="start" x="356.12" y="-100.05" font-family="Monaco" font-size="11.00" fill="#0550ae">None</text>
<text xml:space="preserve" text-anchor="start" x="383.12" y="-100.05" font-family="Monaco" font-size="11.00">, &#160;</text>
<text xml:space="preserve" text-anchor="start" x="403.38" y="-100.05" font-family="Monaco" font-size="11.00" fill="#6e7781">// None = built&#45;in</text>
<text xml:space="preserve" text-anchor="start" x="302.12" y="-81.8" font-family="Monaco" font-size="11.00"> &#160;&#160;&#160;key: </text>
<text xml:space="preserve" text-anchor="start" x="362.88" y="-81.8" font-family="Monaco" font-size="11.00" fill="#0a3069">&quot;skip&quot;</text>
<text xml:space="preserve" text-anchor="start" x="403.38" y="-81.8" font-family="Monaco" font-size="11.00">,</text>
<text xml:space="preserve" text-anchor="start" x="302.12" y="-63.55" font-family="Monaco" font-size="11.00"> &#160;&#160;&#160;data: </text>
<text xml:space="preserve" text-anchor="start" x="369.62" y="-63.55" font-family="Monaco" font-size="11.00" fill="#cf222e">&amp;</text>
<text xml:space="preserve" text-anchor="start" x="376.38" y="-63.55" font-family="Monaco" font-size="11.00">() </text>
<text xml:space="preserve" text-anchor="start" x="396.62" y="-63.55" font-family="Monaco" font-size="11.00" fill="#cf222e">as</text>
<text xml:space="preserve" text-anchor="start" x="410.12" y="-63.55" font-family="Monaco" font-size="11.00"> *</text>
<text xml:space="preserve" text-anchor="start" x="423.62" y="-63.55" font-family="Monaco" font-size="11.00" fill="#cf222e">const</text>
<text xml:space="preserve" text-anchor="start" x="457.38" y="-63.55" font-family="Monaco" font-size="11.00"> (),</text>
<text xml:space="preserve" text-anchor="start" x="302.12" y="-44.3" font-family="Monaco" font-size="11.00"> &#160;&#160;&#160;shape: &lt;()&gt;::SHAPE,</text>
<text xml:space="preserve" text-anchor="start" x="302.12" y="-26.05" font-family="Monaco" font-size="11.00">}</text>
</g>
<!-- builtin&#45;&gt;ext1 -->
<g id="edge1" class="edge">
<title>builtin&#45;&gt;ext1</title>
<path fill="none" stroke="#228b22" stroke-width="2" d="M231.98,-91.95C247.35,-90.5 263.33,-89 279.13,-87.52"/>
<polygon fill="#228b22" stroke="#228b22" stroke-width="2" points="279.12,-91.04 288.74,-86.62 278.46,-84.07 279.12,-91.04"/>
</g>
<!-- extension -->
<g id="node2" class="node">
<title>extension</title>
<polygon fill="#f4e8e8" stroke="black" points="218.25,-214.38 29.5,-214.38 29.5,-151.62 218.25,-151.62 218.25,-214.38"/>
<polygon fill="#f4e8e8" stroke="none" points="37.5,-192.12 37.5,-210.38 210.25,-210.38 210.25,-192.12 37.5,-192.12"/>
<text xml:space="preserve" text-anchor="start" x="39.5" y="-198.93" font-family="Monaco, Consolas, Courier" font-weight="bold" font-size="11.00">Namespaced attrs</text>
<text xml:space="preserve" text-anchor="start" x="39.5" y="-180.68" font-family="Monaco" font-size="11.00">#[</text>
<text xml:space="preserve" text-anchor="start" x="53" y="-180.68" font-family="Monaco" font-size="11.00" fill="#8250df">facet</text>
<text xml:space="preserve" text-anchor="start" x="86.75" y="-180.68" font-family="Monaco" font-size="11.00">(kdl::child)]</text>
<text xml:space="preserve" text-anchor="start" x="39.5" y="-162.43" font-family="Monaco" font-size="11.00">#[</text>
<text xml:space="preserve" text-anchor="start" x="53" y="-162.43" font-family="Monaco" font-size="11.00" fill="#8250df">facet</text>
<text xml:space="preserve" text-anchor="start" x="86.75" y="-162.43" font-family="Monaco" font-size="11.00">(orm::column(pk))]</text>
</g>
<!-- ext2 -->
<g id="node4" class="node">
<title>ext2</title>
<polygon fill="#e8f5e9" stroke="black" points="514.62,-269.75 312.38,-269.75 312.38,-152.25 514.62,-152.25 514.62,-269.75"/>
<text xml:space="preserve" text-anchor="start" x="322.38" y="-254.3" font-family="Monaco" font-size="11.00">::facet_core::</text>
<text xml:space="preserve" text-anchor="start" x="416.88" y="-254.3" font-family="Monaco" font-size="11.00" fill="#0550ae">Attribute</text>
<text xml:space="preserve" text-anchor="start" x="477.62" y="-254.3" font-family="Monaco" font-size="11.00"> {</text>
<text xml:space="preserve" text-anchor="start" x="322.38" y="-236.05" font-family="Monaco" font-size="11.00"> &#160;&#160;&#160;ns: </text>
<text xml:space="preserve" text-anchor="start" x="376.38" y="-236.05" font-family="Monaco" font-size="11.00" fill="#0550ae">Some</text>
<text xml:space="preserve" text-anchor="start" x="403.38" y="-236.05" font-family="Monaco" font-size="11.00">(</text>
<text xml:space="preserve" text-anchor="start" x="410.12" y="-236.05" font-family="Monaco" font-size="11.00" fill="#0a3069">&quot;kdl&quot;</text>
<text xml:space="preserve" text-anchor="start" x="443.88" y="-236.05" font-family="Monaco" font-size="11.00">),</text>
<text xml:space="preserve" text-anchor="start" x="322.38" y="-217.8" font-family="Monaco" font-size="11.00"> &#160;&#160;&#160;key: </text>
<text xml:space="preserve" text-anchor="start" x="383.12" y="-217.8" font-family="Monaco" font-size="11.00" fill="#0a3069">&quot;child&quot;</text>
<text xml:space="preserve" text-anchor="start" x="430.38" y="-217.8" font-family="Monaco" font-size="11.00">,</text>
<text xml:space="preserve" text-anchor="start" x="322.38" y="-199.55" font-family="Monaco" font-size="11.00"> &#160;&#160;&#160;data: </text>
<text xml:space="preserve" text-anchor="start" x="389.88" y="-199.55" font-family="Monaco" font-size="11.00" fill="#cf222e">&amp;</text>
<text xml:space="preserve" text-anchor="start" x="396.62" y="-199.55" font-family="Monaco" font-size="11.00">() </text>
<text xml:space="preserve" text-anchor="start" x="416.88" y="-199.55" font-family="Monaco" font-size="11.00" fill="#cf222e">as</text>
<text xml:space="preserve" text-anchor="start" x="430.38" y="-199.55" font-family="Monaco" font-size="11.00"> *</text>
<text xml:space="preserve" text-anchor="start" x="443.88" y="-199.55" font-family="Monaco" font-size="11.00" fill="#cf222e">const</text>
<text xml:space="preserve" text-anchor="start" x="477.62" y="-199.55" font-family="Monaco" font-size="11.00"> (),</text>
<text xml:space="preserve" text-anchor="start" x="322.38" y="-180.3" font-family="Monaco" font-size="11.00"> &#160;&#160;&#160;shape: &lt;()&gt;::SHAPE,</text>
<text xml:space="preserve" text-anchor="start" x="322.38" y="-162.05" font-family="Monaco" font-size="11.00">}</text>
</g>
<!-- extension&#45;&gt;ext2 -->
<g id="edge2" class="edge">
<title>extension&#45;&gt;ext2</title>
<path fill="none" stroke="#228b22" stroke-width="2" d="M218.66,-192.13C244.3,-194.63 272.36,-197.36 298.98,-199.95"/>
<polygon fill="#228b22" stroke="#228b22" stroke-width="2" points="298.6,-203.43 308.89,-200.91 299.28,-196.46 298.6,-203.43"/>
</g>
<!-- field -->
<g id="node5" class="node">
<title>field</title>
<polygon fill="#e8f5e9" stroke="black" points="852.5,-133.75 596.25,-133.75 596.25,-16.25 852.5,-16.25 852.5,-133.75"/>
<polygon fill="#d4edda" stroke="none" points="604.25,-111.5 604.25,-129.75 844.5,-129.75 844.5,-111.5 604.25,-111.5"/>
<text xml:space="preserve" text-anchor="start" x="606.25" y="-118.3" font-family="Monaco, Consolas, Courier" font-weight="bold" font-size="11.00">::facet_core::Field</text>
<text xml:space="preserve" text-anchor="start" x="606.25" y="-100.05" font-family="Monaco" font-size="11.00">::facet_core::</text>
<text xml:space="preserve" text-anchor="start" x="700.75" y="-100.05" font-family="Monaco" font-size="11.00" fill="#0550ae">Field</text>
<text xml:space="preserve" text-anchor="start" x="734.5" y="-100.05" font-family="Monaco" font-size="11.00"> {</text>
<text xml:space="preserve" text-anchor="start" x="606.25" y="-81.8" font-family="Monaco" font-size="11.00"> &#160;&#160;&#160;name: </text>
<text xml:space="preserve" text-anchor="start" x="673.75" y="-81.8" font-family="Monaco" font-size="11.00" fill="#0a3069">&quot;id&quot;</text>
<text xml:space="preserve" text-anchor="start" x="700.75" y="-81.8" font-family="Monaco" font-size="11.00">,</text>
<text xml:space="preserve" text-anchor="start" x="606.25" y="-63.55" font-family="Monaco" font-size="11.00"> &#160;&#160;&#160;attributes: </text>
<text xml:space="preserve" text-anchor="start" x="714.25" y="-63.55" font-family="Monaco" font-size="11.00" fill="#cf222e">&amp;</text>
<text xml:space="preserve" text-anchor="start" x="721" y="-63.55" font-family="Monaco" font-size="11.00">[</text>
<text xml:space="preserve" text-anchor="start" x="727.75" y="-63.55" font-family="Monaco" font-size="11.00" fill="#0550ae">Attribute</text>
<text xml:space="preserve" text-anchor="start" x="788.5" y="-63.55" font-family="Monaco" font-size="11.00"> {...}],</text>
<text xml:space="preserve" text-anchor="start" x="606.25" y="-44.3" font-family="Monaco" font-size="11.00"> &#160;&#160;&#160;...</text>
<text xml:space="preserve" text-anchor="start" x="606.25" y="-26.05" font-family="Monaco" font-size="11.00">}</text>
</g>
<!-- ext1&#45;&gt;field -->
<g id="edge3" class="edge">
<title>ext1&#45;&gt;field</title>
<path fill="none" stroke="#228b22" stroke-width="2" d="M535.25,-75C550.93,-75 567.11,-75 583.08,-75"/>
<polygon fill="#228b22" stroke="#228b22" stroke-width="2" points="582.8,-78.5 592.8,-75 582.8,-71.5 582.8,-78.5"/>
</g>
<!-- container -->
<g id="node6" class="node">
<title>container</title>
<polygon fill="#e8f5e9" stroke="black" points="852.5,-269.75 596.25,-269.75 596.25,-152.25 852.5,-152.25 852.5,-269.75"/>
<polygon fill="#d4edda" stroke="none" points="604.25,-247.5 604.25,-265.75 844.5,-265.75 844.5,-247.5 604.25,-247.5"/>
<text xml:space="preserve" text-anchor="start" x="606.25" y="-254.3" font-family="Monaco, Consolas, Courier" font-weight="bold" font-size="11.00">::facet_core::StructType (etc)</text>
<text xml:space="preserve" text-anchor="start" x="606.25" y="-236.05" font-family="Monaco" font-size="11.00">::facet_core::</text>
<text xml:space="preserve" text-anchor="start" x="700.75" y="-236.05" font-family="Monaco" font-size="11.00" fill="#0550ae">StructType</text>
<text xml:space="preserve" text-anchor="start" x="768.25" y="-236.05" font-family="Monaco" font-size="11.00"> {</text>
<text xml:space="preserve" text-anchor="start" x="606.25" y="-217.8" font-family="Monaco" font-size="11.00"> &#160;&#160;&#160;attributes: </text>
<text xml:space="preserve" text-anchor="start" x="714.25" y="-217.8" font-family="Monaco" font-size="11.00" fill="#cf222e">&amp;</text>
<text xml:space="preserve" text-anchor="start" x="721" y="-217.8" font-family="Monaco" font-size="11.00">[</text>
<text xml:space="preserve" text-anchor="start" x="727.75" y="-217.8" font-family="Monaco" font-size="11.00" fill="#0550ae">Attribute</text>
<text xml:space="preserve" text-anchor="start" x="788.5" y="-217.8" font-family="Monaco" font-size="11.00"> {...}],</text>
<text xml:space="preserve" text-anchor="start" x="606.25" y="-199.55" font-family="Monaco" font-size="11.00"> &#160;&#160;&#160;fields: </text>
<text xml:space="preserve" text-anchor="start" x="687.25" y="-199.55" font-family="Monaco" font-size="11.00" fill="#cf222e">&amp;</text>
<text xml:space="preserve" text-anchor="start" x="694" y="-199.55" font-family="Monaco" font-size="11.00">[</text>
<text xml:space="preserve" text-anchor="start" x="700.75" y="-199.55" font-family="Monaco" font-size="11.00" fill="#0550ae">Field</text>
<text xml:space="preserve" text-anchor="start" x="734.5" y="-199.55" font-family="Monaco" font-size="11.00"> {...}],</text>
<text xml:space="preserve" text-anchor="start" x="606.25" y="-180.3" font-family="Monaco" font-size="11.00"> &#160;&#160;&#160;...</text>
<text xml:space="preserve" text-anchor="start" x="606.25" y="-162.05" font-family="Monaco" font-size="11.00">}</text>
</g>
<!-- ext1&#45;&gt;container -->
<g id="edge4" class="edge">
<title>ext1&#45;&gt;container</title>
<path fill="none" stroke="#228b22" stroke-width="2" stroke-dasharray="5,2" d="M535.25,-128.17C551.24,-135.21 567.75,-142.48 584.03,-149.64"/>
<polygon fill="#228b22" stroke="#228b22" stroke-width="2" points="582.5,-152.8 593.06,-153.62 585.32,-146.39 582.5,-152.8"/>
</g>
<!-- ext2&#45;&gt;field -->
<g id="edge5" class="edge">
<title>ext2&#45;&gt;field</title>
<path fill="none" stroke="#228b22" stroke-width="2" d="M514.78,-166.84C536.93,-157.09 560.79,-146.59 584.17,-136.29"/>
<polygon fill="#228b22" stroke="#228b22" stroke-width="2" points="585.46,-139.55 593.2,-132.32 582.64,-133.14 585.46,-139.55"/>
</g>
<!-- ext2&#45;&gt;container -->
<g id="edge6" class="edge">
<title>ext2&#45;&gt;container</title>
<path fill="none" stroke="#228b22" stroke-width="2" stroke-dasharray="5,2" d="M514.78,-211C536.63,-211 560.14,-211 583.21,-211"/>
<polygon fill="#228b22" stroke="#228b22" stroke-width="2" points="582.95,-214.5 592.95,-211 582.95,-207.5 582.95,-214.5"/>
</g>
</g>
</svg>
