<?xml version="1.0" encoding="UTF-8"?>
<svg xmlns="http://www.w3.org/2000/svg" width="243" height="159">
   <defs>
      <style type="text/css">
    @namespace "http://www.w3.org/2000/svg";
    .line                 {fill: none; stroke: #332900; stroke-width: 1;}
    .bold-line            {stroke: #141000; shape-rendering: crispEdges; stroke-width: 2;}
    .thin-line            {stroke: #1F1800; shape-rendering: crispEdges}
    .filled               {fill: #332900; stroke: none;}
    text.terminal         {font-family: Verdana, Sans-serif;
                            font-size: 12px;
                            fill: #141000;
                            font-weight: bold;
                          }
    text.nonterminal      {font-family: Verdana, Sans-serif;
                            font-size: 12px;
                            fill: #1A1400;
                            font-weight: normal;
                          }
    text.regexp           {font-family: Verdana, Sans-serif;
                            font-size: 12px;
                            fill: #1F1800;
                            font-weight: normal;
                          }
    rect, circle, polygon {fill: #332900; stroke: #332900;}
    rect.terminal         {fill: #FFDB4D; stroke: #332900; stroke-width: 1;}
    rect.nonterminal      {fill: #FFEC9E; stroke: #332900; stroke-width: 1;}
    rect.text             {fill: none; stroke: none;}
    polygon.regexp        {fill: #FFF4C7; stroke: #332900; stroke-width: 1;}
  </style>
   </defs>
   <polygon points="9 139 1 135 1 143"/>
   <polygon points="17 139 9 135 9 143"/>
   <polygon points="31 141 38 125 86 125 93 141 86 157 38 157"/>
   <polygon points="29 139 36 123 84 123 91 139 84 155 36 155" class="regexp"/>
   <text class="regexp" x="44" y="143">[A-Z]</text>
   <polygon points="133 107 140 91 188 91 195 107 188 123 140 123"/>
   <polygon points="131 105 138 89 186 89 193 105 186 121 138 121" class="regexp"/>
   <text class="regexp" x="146" y="109">[A-Z]</text>
   <polygon points="133 63 140 47 188 47 195 63 188 79 140 79"/>
   <polygon points="131 61 138 45 186 45 193 61 186 77 138 77" class="regexp"/>
   <text class="regexp" x="146" y="65">[0-9]</text>
   <rect x="133" y="3" width="28" height="32" rx="10"/>
   <rect x="131"
         y="1"
         width="28"
         height="32"
         class="terminal"
         rx="10"/>
   <text class="terminal" x="141" y="21">_</text>
   <path class="line"
         d="m17 139 h2 m0 0 h10 m62 0 h10 m20 0 h10 m0 0 h72 m-102 0 l20 0 m-1 0 q-9 0 -9 -10 l0 -14 q0 -10 10 -10 m82 34 l20 0 m-20 0 q10 0 10 -10 l0 -14 q0 -10 -10 -10 m-82 0 h10 m62 0 h10 m-92 10 l0 -44 q0 -10 10 -10 m92 54 l0 -44 q0 -10 -10 -10 m-82 0 h10 m62 0 h10 m-92 10 l0 -44 q0 -10 10 -10 m92 54 l0 -44 q0 -10 -10 -10 m-82 0 h10 m28 0 h10 m0 0 h34 m23 122 h-3"/>
   <polygon points="233 139 241 135 241 143"/>
   <polygon points="233 139 225 135 225 143"/>
</svg>
