<?xml version="1.0" encoding="UTF-8"?>
<svg xmlns="http://www.w3.org/2000/svg" width="385" height="87">
   <defs>
      <style type="text/css">
    @namespace "http://www.w3.org/2000/svg";
    .line                 {fill: none; stroke: #332900; stroke-width: 1;}
    .bold-line            {stroke: #141000; shape-rendering: crispEdges; stroke-width: 2;}
    .thin-line            {stroke: #1F1800; shape-rendering: crispEdges}
    .filled               {fill: #332900; stroke: none;}
    text.terminal         {font-family: Verdana, Sans-serif;
                            font-size: 12px;
                            fill: #141000;
                            font-weight: bold;
                          }
    text.nonterminal      {font-family: Verdana, Sans-serif;
                            font-size: 12px;
                            fill: #1A1400;
                            font-weight: normal;
                          }
    text.regexp           {font-family: Verdana, Sans-serif;
                            font-size: 12px;
                            fill: #1F1800;
                            font-weight: normal;
                          }
    rect, circle, polygon {fill: #332900; stroke: #332900;}
    rect.terminal         {fill: #FFDB4D; stroke: #332900; stroke-width: 1;}
    rect.nonterminal      {fill: #FFEC9E; stroke: #332900; stroke-width: 1;}
    rect.text             {fill: none; stroke: none;}
    polygon.regexp        {fill: #FFF4C7; stroke: #332900; stroke-width: 1;}
  </style>
   </defs>
   <polygon points="9 67 1 63 1 71"/>
   <polygon points="17 67 9 63 9 71"/>
   <rect x="51" y="53" width="44" height="32" rx="10"/>
   <rect x="49"
         y="51"
         width="44"
         height="32"
         class="terminal"
         rx="10"/>
   <text class="terminal" x="59" y="71">///</text>
   <a xmlns:xlink="http://www.w3.org/1999/xlink"
      xlink:href="#NonNewline"
      xlink:title="NonNewline">
      <rect x="135" y="19" width="94" height="32"/>
      <rect x="133" y="17" width="94" height="32" class="nonterminal"/>
      <text class="nonterminal" x="143" y="37">NonNewline</text>
   </a>
   <a xmlns:xlink="http://www.w3.org/1999/xlink"
      xlink:href="#Newline"
      xlink:title="Newline">
      <rect x="269" y="53" width="68" height="32"/>
      <rect x="267" y="51" width="68" height="32" class="nonterminal"/>
      <text class="nonterminal" x="277" y="71">Newline</text>
   </a>
   <path class="line"
         d="m17 67 h2 m20 0 h10 m44 0 h10 m20 0 h10 m0 0 h104 m-134 0 l20 0 m-1 0 q-9 0 -9 -10 l0 -14 q0 -10 10 -10 m114 34 l20 0 m-20 0 q10 0 10 -10 l0 -14 q0 -10 -10 -10 m-114 0 h10 m94 0 h10 m20 34 h10 m68 0 h10 m-326 0 l20 0 m-1 0 q-9 0 -9 -10 l0 -46 q0 -10 10 -10 m306 66 l20 0 m-20 0 q10 0 10 -10 l0 -46 q0 -10 -10 -10 m-306 0 h10 m0 0 h296 m23 66 h-3"/>
   <polygon points="375 67 383 63 383 71"/>
   <polygon points="375 67 367 63 367 71"/>
</svg>
