<?xml version="1.0" encoding="UTF-8"?>
<svg xmlns="http://www.w3.org/2000/svg" width="315" height="85">
   <defs>
      <style type="text/css">
    @namespace "http://www.w3.org/2000/svg";
    .line                 {fill: none; stroke: #332900; stroke-width: 1;}
    .bold-line            {stroke: #141000; shape-rendering: crispEdges; stroke-width: 2;}
    .thin-line            {stroke: #1F1800; shape-rendering: crispEdges}
    .filled               {fill: #332900; stroke: none;}
    text.terminal         {font-family: Verdana, Sans-serif;
                            font-size: 12px;
                            fill: #141000;
                            font-weight: bold;
                          }
    text.nonterminal      {font-family: Verdana, Sans-serif;
                            font-size: 12px;
                            fill: #1A1400;
                            font-weight: normal;
                          }
    text.regexp           {font-family: Verdana, Sans-serif;
                            font-size: 12px;
                            fill: #1F1800;
                            font-weight: normal;
                          }
    rect, circle, polygon {fill: #332900; stroke: #332900;}
    rect.terminal         {fill: #FFDB4D; stroke: #332900; stroke-width: 1;}
    rect.nonterminal      {fill: #FFEC9E; stroke: #332900; stroke-width: 1;}
    rect.text             {fill: none; stroke: none;}
    polygon.regexp        {fill: #FFF4C7; stroke: #332900; stroke-width: 1;}
  </style>
   </defs>
   <polygon points="9 33 1 29 1 37"/>
   <polygon points="17 33 9 29 9 37"/>
   <a xmlns:xlink="http://www.w3.org/1999/xlink"
      xlink:href="#DocComment"
      xlink:title="DocComment">
      <rect x="51" y="51" width="104" height="32"/>
      <rect x="49" y="49" width="104" height="32" class="nonterminal"/>
      <text class="nonterminal" x="59" y="69">DocComment</text>
   </a>
   <a xmlns:xlink="http://www.w3.org/1999/xlink"
      xlink:href="#Atom"
      xlink:title="Atom">
      <rect x="215" y="19" width="52" height="32"/>
      <rect x="213" y="17" width="52" height="32" class="nonterminal"/>
      <text class="nonterminal" x="223" y="37">Atom</text>
   </a>
   <path class="line"
         d="m17 33 h2 m20 0 h10 m0 0 h114 m-144 0 h20 m124 0 h20 m-164 0 q10 0 10 10 m144 0 q0 -10 10 -10 m-154 10 v12 m144 0 v-12 m-144 12 q0 10 10 10 m124 0 q10 0 10 -10 m-134 10 h10 m104 0 h10 m40 -32 h10 m52 0 h10 m-92 0 l20 0 m-1 0 q-9 0 -9 -10 l0 -12 q0 -10 10 -10 m72 32 l20 0 m-20 0 q10 0 10 -10 l0 -12 q0 -10 -10 -10 m-72 0 h10 m0 0 h62 m23 32 h-3"/>
   <polygon points="305 33 313 29 313 37"/>
   <polygon points="305 33 297 29 297 37"/>
</svg>
