<?xml version="1.0" encoding="UTF-8"?>
<svg xmlns="http://www.w3.org/2000/svg" width="931" height="443">
   <defs>
      <style type="text/css">
    @namespace "http://www.w3.org/2000/svg";
    .line                 {fill: none; stroke: #332900; stroke-width: 1;}
    .bold-line            {stroke: #141000; shape-rendering: crispEdges; stroke-width: 2;}
    .thin-line            {stroke: #1F1800; shape-rendering: crispEdges}
    .filled               {fill: #332900; stroke: none;}
    text.terminal         {font-family: Verdana, Sans-serif;
                            font-size: 12px;
                            fill: #141000;
                            font-weight: bold;
                          }
    text.nonterminal      {font-family: Verdana, Sans-serif;
                            font-size: 12px;
                            fill: #1A1400;
                            font-weight: normal;
                          }
    text.regexp           {font-family: Verdana, Sans-serif;
                            font-size: 12px;
                            fill: #1F1800;
                            font-weight: normal;
                          }
    rect, circle, polygon {fill: #332900; stroke: #332900;}
    rect.terminal         {fill: #FFDB4D; stroke: #332900; stroke-width: 1;}
    rect.nonterminal      {fill: #FFEC9E; stroke: #332900; stroke-width: 1;}
    rect.text             {fill: none; stroke: none;}
    polygon.regexp        {fill: #FFF4C7; stroke: #332900; stroke-width: 1;}
  </style>
   </defs>
   <polygon points="11 17 3 13 3 21"/>
   <polygon points="19 17 11 13 11 21"/>
   <rect x="33" y="3" width="28" height="32" rx="10"/>
   <rect x="31"
         y="1"
         width="28"
         height="32"
         class="terminal"
         rx="10"/>
   <text class="terminal" x="41" y="21">\</text>
   <rect x="45" y="69" width="28" height="32" rx="10"/>
   <rect x="43"
         y="67"
         width="28"
         height="32"
         class="terminal"
         rx="10"/>
   <text class="terminal" x="53" y="87">\</text>
   <rect x="45" y="113" width="26" height="32" rx="10"/>
   <rect x="43"
         y="111"
         width="26"
         height="32"
         class="terminal"
         rx="10"/>
   <text class="terminal" x="53" y="131">"</text>
   <rect x="45" y="157" width="28" height="32" rx="10"/>
   <rect x="43"
         y="155"
         width="28"
         height="32"
         class="terminal"
         rx="10"/>
   <text class="terminal" x="53" y="175">n</text>
   <rect x="45" y="201" width="26" height="32" rx="10"/>
   <rect x="43"
         y="199"
         width="26"
         height="32"
         class="terminal"
         rx="10"/>
   <text class="terminal" x="53" y="219">r</text>
   <rect x="45" y="245" width="24" height="32" rx="10"/>
   <rect x="43"
         y="243"
         width="24"
         height="32"
         class="terminal"
         rx="10"/>
   <text class="terminal" x="53" y="263">t</text>
   <rect x="45" y="289" width="28" height="32" rx="10"/>
   <rect x="43"
         y="287"
         width="28"
         height="32"
         class="terminal"
         rx="10"/>
   <text class="terminal" x="53" y="307">0</text>
   <rect x="45" y="333" width="28" height="32" rx="10"/>
   <rect x="43"
         y="331"
         width="28"
         height="32"
         class="terminal"
         rx="10"/>
   <text class="terminal" x="53" y="351">u</text>
   <a xmlns:xlink="http://www.w3.org/1999/xlink"
      xlink:href="#HexDigit"
      xlink:title="HexDigit">
      <rect x="93" y="333" width="72" height="32"/>
      <rect x="91" y="331" width="72" height="32" class="nonterminal"/>
      <text class="nonterminal" x="101" y="351">HexDigit</text>
   </a>
   <a xmlns:xlink="http://www.w3.org/1999/xlink"
      xlink:href="#HexDigit"
      xlink:title="HexDigit">
      <rect x="185" y="333" width="72" height="32"/>
      <rect x="183" y="331" width="72" height="32" class="nonterminal"/>
      <text class="nonterminal" x="193" y="351">HexDigit</text>
   </a>
   <a xmlns:xlink="http://www.w3.org/1999/xlink"
      xlink:href="#HexDigit"
      xlink:title="HexDigit">
      <rect x="277" y="333" width="72" height="32"/>
      <rect x="275" y="331" width="72" height="32" class="nonterminal"/>
      <text class="nonterminal" x="285" y="351">HexDigit</text>
   </a>
   <a xmlns:xlink="http://www.w3.org/1999/xlink"
      xlink:href="#HexDigit"
      xlink:title="HexDigit">
      <rect x="369" y="333" width="72" height="32"/>
      <rect x="367" y="331" width="72" height="32" class="nonterminal"/>
      <text class="nonterminal" x="377" y="351">HexDigit</text>
   </a>
   <rect x="45" y="377" width="38" height="32" rx="10"/>
   <rect x="43"
         y="375"
         width="38"
         height="32"
         class="terminal"
         rx="10"/>
   <text class="terminal" x="53" y="395">u{</text>
   <a xmlns:xlink="http://www.w3.org/1999/xlink"
      xlink:href="#HexDigit"
      xlink:title="HexDigit">
      <rect x="103" y="377" width="72" height="32"/>
      <rect x="101" y="375" width="72" height="32" class="nonterminal"/>
      <text class="nonterminal" x="111" y="395">HexDigit</text>
   </a>
   <a xmlns:xlink="http://www.w3.org/1999/xlink"
      xlink:href="#HexDigit"
      xlink:title="HexDigit">
      <rect x="215" y="409" width="72" height="32"/>
      <rect x="213" y="407" width="72" height="32" class="nonterminal"/>
      <text class="nonterminal" x="223" y="427">HexDigit</text>
   </a>
   <a xmlns:xlink="http://www.w3.org/1999/xlink"
      xlink:href="#HexDigit"
      xlink:title="HexDigit">
      <rect x="347" y="409" width="72" height="32"/>
      <rect x="345" y="407" width="72" height="32" class="nonterminal"/>
      <text class="nonterminal" x="355" y="427">HexDigit</text>
   </a>
   <a xmlns:xlink="http://www.w3.org/1999/xlink"
      xlink:href="#HexDigit"
      xlink:title="HexDigit">
      <rect x="479" y="409" width="72" height="32"/>
      <rect x="477" y="407" width="72" height="32" class="nonterminal"/>
      <text class="nonterminal" x="487" y="427">HexDigit</text>
   </a>
   <a xmlns:xlink="http://www.w3.org/1999/xlink"
      xlink:href="#HexDigit"
      xlink:title="HexDigit">
      <rect x="611" y="409" width="72" height="32"/>
      <rect x="609" y="407" width="72" height="32" class="nonterminal"/>
      <text class="nonterminal" x="619" y="427">HexDigit</text>
   </a>
   <a xmlns:xlink="http://www.w3.org/1999/xlink"
      xlink:href="#HexDigit"
      xlink:title="HexDigit">
      <rect x="743" y="409" width="72" height="32"/>
      <rect x="741" y="407" width="72" height="32" class="nonterminal"/>
      <text class="nonterminal" x="751" y="427">HexDigit</text>
   </a>
   <rect x="855" y="377" width="28" height="32" rx="10"/>
   <rect x="853"
         y="375"
         width="28"
         height="32"
         class="terminal"
         rx="10"/>
   <text class="terminal" x="863" y="395">}</text>
   <path class="line"
         d="m19 17 h2 m0 0 h10 m28 0 h10 m2 0 l2 0 m2 0 l2 0 m2 0 l2 0 m-80 66 l2 0 m2 0 l2 0 m2 0 l2 0 m22 0 h10 m28 0 h10 m0 0 h810 m-878 0 h20 m858 0 h20 m-898 0 q10 0 10 10 m878 0 q0 -10 10 -10 m-888 10 v24 m878 0 v-24 m-878 24 q0 10 10 10 m858 0 q10 0 10 -10 m-868 10 h10 m26 0 h10 m0 0 h812 m-868 -10 v20 m878 0 v-20 m-878 20 v24 m878 0 v-24 m-878 24 q0 10 10 10 m858 0 q10 0 10 -10 m-868 10 h10 m28 0 h10 m0 0 h810 m-868 -10 v20 m878 0 v-20 m-878 20 v24 m878 0 v-24 m-878 24 q0 10 10 10 m858 0 q10 0 10 -10 m-868 10 h10 m26 0 h10 m0 0 h812 m-868 -10 v20 m878 0 v-20 m-878 20 v24 m878 0 v-24 m-878 24 q0 10 10 10 m858 0 q10 0 10 -10 m-868 10 h10 m24 0 h10 m0 0 h814 m-868 -10 v20 m878 0 v-20 m-878 20 v24 m878 0 v-24 m-878 24 q0 10 10 10 m858 0 q10 0 10 -10 m-868 10 h10 m28 0 h10 m0 0 h810 m-868 -10 v20 m878 0 v-20 m-878 20 v24 m878 0 v-24 m-878 24 q0 10 10 10 m858 0 q10 0 10 -10 m-868 10 h10 m28 0 h10 m0 0 h10 m72 0 h10 m0 0 h10 m72 0 h10 m0 0 h10 m72 0 h10 m0 0 h10 m72 0 h10 m0 0 h442 m-868 -10 v20 m878 0 v-20 m-878 20 v24 m878 0 v-24 m-878 24 q0 10 10 10 m858 0 q10 0 10 -10 m-868 10 h10 m38 0 h10 m0 0 h10 m72 0 h10 m20 0 h10 m0 0 h82 m-112 0 h20 m92 0 h20 m-132 0 q10 0 10 10 m112 0 q0 -10 10 -10 m-122 10 v12 m112 0 v-12 m-112 12 q0 10 10 10 m92 0 q10 0 10 -10 m-102 10 h10 m72 0 h10 m40 -32 h10 m0 0 h82 m-112 0 h20 m92 0 h20 m-132 0 q10 0 10 10 m112 0 q0 -10 10 -10 m-122 10 v12 m112 0 v-12 m-112 12 q0 10 10 10 m92 0 q10 0 10 -10 m-102 10 h10 m72 0 h10 m40 -32 h10 m0 0 h82 m-112 0 h20 m92 0 h20 m-132 0 q10 0 10 10 m112 0 q0 -10 10 -10 m-122 10 v12 m112 0 v-12 m-112 12 q0 10 10 10 m92 0 q10 0 10 -10 m-102 10 h10 m72 0 h10 m40 -32 h10 m0 0 h82 m-112 0 h20 m92 0 h20 m-132 0 q10 0 10 10 m112 0 q0 -10 10 -10 m-122 10 v12 m112 0 v-12 m-112 12 q0 10 10 10 m92 0 q10 0 10 -10 m-102 10 h10 m72 0 h10 m40 -32 h10 m0 0 h82 m-112 0 h20 m92 0 h20 m-132 0 q10 0 10 10 m112 0 q0 -10 10 -10 m-122 10 v12 m112 0 v-12 m-112 12 q0 10 10 10 m92 0 q10 0 10 -10 m-102 10 h10 m72 0 h10 m20 -32 h10 m28 0 h10 m23 -308 h-3"/>
   <polygon points="921 83 929 79 929 87"/>
   <polygon points="921 83 913 79 913 87"/>
</svg>
