<?xml version="1.0" encoding="UTF-8"?>
<svg xmlns="http://www.w3.org/2000/svg" width="537" height="71">
   <defs>
      <style type="text/css">
    @namespace "http://www.w3.org/2000/svg";
    .line                 {fill: none; stroke: #332900; stroke-width: 1;}
    .bold-line            {stroke: #141000; shape-rendering: crispEdges; stroke-width: 2;}
    .thin-line            {stroke: #1F1800; shape-rendering: crispEdges}
    .filled               {fill: #332900; stroke: none;}
    text.terminal         {font-family: Verdana, Sans-serif;
                            font-size: 12px;
                            fill: #141000;
                            font-weight: bold;
                          }
    text.nonterminal      {font-family: Verdana, Sans-serif;
                            font-size: 12px;
                            fill: #1A1400;
                            font-weight: normal;
                          }
    text.regexp           {font-family: Verdana, Sans-serif;
                            font-size: 12px;
                            fill: #1F1800;
                            font-weight: normal;
                          }
    rect, circle, polygon {fill: #332900; stroke: #332900;}
    rect.terminal         {fill: #FFDB4D; stroke: #332900; stroke-width: 1;}
    rect.nonterminal      {fill: #FFEC9E; stroke: #332900; stroke-width: 1;}
    rect.text             {fill: none; stroke: none;}
    polygon.regexp        {fill: #FFF4C7; stroke: #332900; stroke-width: 1;}
  </style>
   </defs>
   <polygon points="9 51 1 47 1 55"/>
   <polygon points="17 51 9 47 9 55"/>
   <rect x="31" y="37" width="40" height="32" rx="10"/>
   <rect x="29"
         y="35"
         width="40"
         height="32"
         class="terminal"
         rx="10"/>
   <text class="terminal" x="39" y="55">&lt;&lt;</text>
   <a xmlns:xlink="http://www.w3.org/1999/xlink"
      xlink:href="#Delimiter"
      xlink:title="Delimiter">
      <rect x="91" y="37" width="76" height="32"/>
      <rect x="89" y="35" width="76" height="32" class="nonterminal"/>
      <text class="nonterminal" x="99" y="55">Delimiter</text>
   </a>
   <a xmlns:xlink="http://www.w3.org/1999/xlink"
      xlink:href="#Newline"
      xlink:title="Newline">
      <rect x="187" y="37" width="68" height="32"/>
      <rect x="185" y="35" width="68" height="32" class="nonterminal"/>
      <text class="nonterminal" x="195" y="55">Newline</text>
   </a>
   <a xmlns:xlink="http://www.w3.org/1999/xlink"
      xlink:href="#HeredocLine"
      xlink:title="HeredocLine">
      <rect x="295" y="3" width="98" height="32"/>
      <rect x="293" y="1" width="98" height="32" class="nonterminal"/>
      <text class="nonterminal" x="303" y="21">HeredocLine</text>
   </a>
   <a xmlns:xlink="http://www.w3.org/1999/xlink"
      xlink:href="#Delimiter"
      xlink:title="Delimiter">
      <rect x="433" y="37" width="76" height="32"/>
      <rect x="431" y="35" width="76" height="32" class="nonterminal"/>
      <text class="nonterminal" x="441" y="55">Delimiter</text>
   </a>
   <path class="line"
         d="m17 51 h2 m0 0 h10 m40 0 h10 m0 0 h10 m76 0 h10 m0 0 h10 m68 0 h10 m20 0 h10 m0 0 h108 m-138 0 l20 0 m-1 0 q-9 0 -9 -10 l0 -14 q0 -10 10 -10 m118 34 l20 0 m-20 0 q10 0 10 -10 l0 -14 q0 -10 -10 -10 m-118 0 h10 m98 0 h10 m20 34 h10 m76 0 h10 m3 0 h-3"/>
   <polygon points="527 51 535 47 535 55"/>
   <polygon points="527 51 519 47 519 55"/>
</svg>
