<?xml version="1.0" encoding="UTF-8"?>
<svg xmlns="http://www.w3.org/2000/svg" width="407" height="97">
   <defs>
      <style type="text/css">
    @namespace "http://www.w3.org/2000/svg";
    .line                 {fill: none; stroke: #332900; stroke-width: 1;}
    .bold-line            {stroke: #141000; shape-rendering: crispEdges; stroke-width: 2;}
    .thin-line            {stroke: #1F1800; shape-rendering: crispEdges}
    .filled               {fill: #332900; stroke: none;}
    text.terminal         {font-family: Verdana, Sans-serif;
                            font-size: 12px;
                            fill: #141000;
                            font-weight: bold;
                          }
    text.nonterminal      {font-family: Verdana, Sans-serif;
                            font-size: 12px;
                            fill: #1A1400;
                            font-weight: normal;
                          }
    text.regexp           {font-family: Verdana, Sans-serif;
                            font-size: 12px;
                            fill: #1F1800;
                            font-weight: normal;
                          }
    rect, circle, polygon {fill: #332900; stroke: #332900;}
    rect.terminal         {fill: #FFDB4D; stroke: #332900; stroke-width: 1;}
    rect.nonterminal      {fill: #FFEC9E; stroke: #332900; stroke-width: 1;}
    rect.text             {fill: none; stroke: none;}
    polygon.regexp        {fill: #FFF4C7; stroke: #332900; stroke-width: 1;}
  </style>
   </defs>
   <polygon points="9 77 1 73 1 81"/>
   <polygon points="17 77 9 73 9 81"/>
   <a xmlns:xlink="http://www.w3.org/1999/xlink"
      xlink:href="#WS"
      xlink:title="WS">
      <rect x="51" y="29" width="40" height="32"/>
      <rect x="49" y="27" width="40" height="32" class="nonterminal"/>
      <text class="nonterminal" x="59" y="47">WS</text>
   </a>
   <a xmlns:xlink="http://www.w3.org/1999/xlink"
      xlink:href="#Entry"
      xlink:title="Entry">
      <rect x="151" y="63" width="52" height="32"/>
      <rect x="149" y="61" width="52" height="32" class="nonterminal"/>
      <text class="nonterminal" x="159" y="81">Entry</text>
   </a>
   <a xmlns:xlink="http://www.w3.org/1999/xlink"
      xlink:href="#Newline"
      xlink:title="Newline">
      <rect x="171" y="19" width="68" height="32"/>
      <rect x="169" y="17" width="68" height="32" class="nonterminal"/>
      <text class="nonterminal" x="179" y="37">Newline</text>
   </a>
   <a xmlns:xlink="http://www.w3.org/1999/xlink"
      xlink:href="#WS"
      xlink:title="WS">
      <rect x="319" y="29" width="40" height="32"/>
      <rect x="317" y="27" width="40" height="32" class="nonterminal"/>
      <text class="nonterminal" x="327" y="47">WS</text>
   </a>
   <path class="line"
         d="m17 77 h2 m20 0 h10 m0 0 h50 m-80 0 l20 0 m-1 0 q-9 0 -9 -10 l0 -14 q0 -10 10 -10 m60 34 l20 0 m-20 0 q10 0 10 -10 l0 -14 q0 -10 -10 -10 m-60 0 h10 m40 0 h10 m40 34 h10 m52 0 h10 m0 0 h56 m-148 0 l20 0 m-1 0 q-9 0 -9 -10 l0 -24 q0 -10 10 -10 m128 44 l20 0 m-20 0 q10 0 10 -10 l0 -24 q0 -10 -10 -10 m-108 0 h10 m68 0 h10 m-108 0 l20 0 m-1 0 q-9 0 -9 -10 l0 -12 q0 -10 10 -10 m88 32 l20 0 m-20 0 q10 0 10 -10 l0 -12 q0 -10 -10 -10 m-88 0 h10 m0 0 h78 m60 76 h10 m0 0 h50 m-80 0 l20 0 m-1 0 q-9 0 -9 -10 l0 -14 q0 -10 10 -10 m60 34 l20 0 m-20 0 q10 0 10 -10 l0 -14 q0 -10 -10 -10 m-60 0 h10 m40 0 h10 m23 34 h-3"/>
   <polygon points="397 77 405 73 405 81"/>
   <polygon points="397 77 389 73 389 81"/>
</svg>
