<?xml version="1.0" encoding="UTF-8"?>
<svg xmlns="http://www.w3.org/2000/svg" width="235" height="147">
   <defs>
      <style type="text/css">
    @namespace "http://www.w3.org/2000/svg";
    .line                 {fill: none; stroke: #332900; stroke-width: 1;}
    .bold-line            {stroke: #141000; shape-rendering: crispEdges; stroke-width: 2;}
    .thin-line            {stroke: #1F1800; shape-rendering: crispEdges}
    .filled               {fill: #332900; stroke: none;}
    text.terminal         {font-family: Verdana, Sans-serif;
                            font-size: 12px;
                            fill: #141000;
                            font-weight: bold;
                          }
    text.nonterminal      {font-family: Verdana, Sans-serif;
                            font-size: 12px;
                            fill: #1A1400;
                            font-weight: normal;
                          }
    text.regexp           {font-family: Verdana, Sans-serif;
                            font-size: 12px;
                            fill: #1F1800;
                            font-weight: normal;
                          }
    rect, circle, polygon {fill: #332900; stroke: #332900;}
    rect.terminal         {fill: #FFDB4D; stroke: #332900; stroke-width: 1;}
    rect.nonterminal      {fill: #FFEC9E; stroke: #332900; stroke-width: 1;}
    rect.text             {fill: none; stroke: none;}
    polygon.regexp        {fill: #FFF4C7; stroke: #332900; stroke-width: 1;}
  </style>
   </defs>
   <polygon points="9 51 1 47 1 55"/>
   <polygon points="17 51 9 47 9 55"/>
   <a xmlns:xlink="http://www.w3.org/1999/xlink"
      xlink:href="#WS"
      xlink:title="WS">
      <rect x="71" y="3" width="40" height="32"/>
      <rect x="69" y="1" width="40" height="32" class="nonterminal"/>
      <text class="nonterminal" x="79" y="21">WS</text>
   </a>
   <a xmlns:xlink="http://www.w3.org/1999/xlink"
      xlink:href="#NewlineSeparated"
      xlink:title="NewlineSeparated">
      <rect x="51" y="69" width="136" height="32"/>
      <rect x="49" y="67" width="136" height="32" class="nonterminal"/>
      <text class="nonterminal" x="59" y="87">NewlineSeparated</text>
   </a>
   <a xmlns:xlink="http://www.w3.org/1999/xlink"
      xlink:href="#CommaSeparated"
      xlink:title="CommaSeparated">
      <rect x="51" y="113" width="134" height="32"/>
      <rect x="49" y="111" width="134" height="32" class="nonterminal"/>
      <text class="nonterminal" x="59" y="131">CommaSeparated</text>
   </a>
   <path class="line"
         d="m17 51 h2 m40 0 h10 m0 0 h50 m-80 0 l20 0 m-1 0 q-9 0 -9 -10 l0 -14 q0 -10 10 -10 m60 34 l20 0 m-20 0 q10 0 10 -10 l0 -14 q0 -10 -10 -10 m-60 0 h10 m40 0 h10 m20 34 h56 m-176 0 h20 m156 0 h20 m-196 0 q10 0 10 10 m176 0 q0 -10 10 -10 m-186 10 v12 m176 0 v-12 m-176 12 q0 10 10 10 m156 0 q10 0 10 -10 m-166 10 h10 m136 0 h10 m-166 -10 v20 m176 0 v-20 m-176 20 v24 m176 0 v-24 m-176 24 q0 10 10 10 m156 0 q10 0 10 -10 m-166 10 h10 m134 0 h10 m0 0 h2 m23 -76 h-3"/>
   <polygon points="225 51 233 47 233 55"/>
   <polygon points="225 51 217 47 217 55"/>
</svg>
