<?xml version="1.0" encoding="UTF-8"?>
<svg xmlns="http://www.w3.org/2000/svg" width="493" height="71">
   <defs>
      <style type="text/css">
    @namespace "http://www.w3.org/2000/svg";
    .line                 {fill: none; stroke: #332900; stroke-width: 1;}
    .bold-line            {stroke: #141000; shape-rendering: crispEdges; stroke-width: 2;}
    .thin-line            {stroke: #1F1800; shape-rendering: crispEdges}
    .filled               {fill: #332900; stroke: none;}
    text.terminal         {font-family: Verdana, Sans-serif;
                            font-size: 12px;
                            fill: #141000;
                            font-weight: bold;
                          }
    text.nonterminal      {font-family: Verdana, Sans-serif;
                            font-size: 12px;
                            fill: #1A1400;
                            font-weight: normal;
                          }
    text.regexp           {font-family: Verdana, Sans-serif;
                            font-size: 12px;
                            fill: #1F1800;
                            font-weight: normal;
                          }
    rect, circle, polygon {fill: #332900; stroke: #332900;}
    rect.terminal         {fill: #FFDB4D; stroke: #332900; stroke-width: 1;}
    rect.nonterminal      {fill: #FFEC9E; stroke: #332900; stroke-width: 1;}
    rect.text             {fill: none; stroke: none;}
    polygon.regexp        {fill: #FFF4C7; stroke: #332900; stroke-width: 1;}
  </style>
   </defs>
   <polygon points="9 51 1 47 1 55"/>
   <polygon points="17 51 9 47 9 55"/>
   <rect x="31" y="37" width="26" height="32" rx="10"/>
   <rect x="29"
         y="35"
         width="26"
         height="32"
         class="terminal"
         rx="10"/>
   <text class="terminal" x="39" y="55">r</text>
   <rect x="97" y="3" width="30" height="32" rx="10"/>
   <rect x="95"
         y="1"
         width="30"
         height="32"
         class="terminal"
         rx="10"/>
   <text class="terminal" x="105" y="21">#</text>
   <rect x="167" y="37" width="26" height="32" rx="10"/>
   <rect x="165"
         y="35"
         width="26"
         height="32"
         class="terminal"
         rx="10"/>
   <text class="terminal" x="175" y="55">"</text>
   <a xmlns:xlink="http://www.w3.org/1999/xlink"
      xlink:href="#RawChar"
      xlink:title="RawChar">
      <rect x="233" y="3" width="76" height="32"/>
      <rect x="231" y="1" width="76" height="32" class="nonterminal"/>
      <text class="nonterminal" x="241" y="21">RawChar</text>
   </a>
   <rect x="349" y="37" width="26" height="32" rx="10"/>
   <rect x="347"
         y="35"
         width="26"
         height="32"
         class="terminal"
         rx="10"/>
   <text class="terminal" x="357" y="55">"</text>
   <rect x="415" y="3" width="30" height="32" rx="10"/>
   <rect x="413"
         y="1"
         width="30"
         height="32"
         class="terminal"
         rx="10"/>
   <text class="terminal" x="423" y="21">#</text>
   <path class="line"
         d="m17 51 h2 m0 0 h10 m26 0 h10 m20 0 h10 m0 0 h40 m-70 0 l20 0 m-1 0 q-9 0 -9 -10 l0 -14 q0 -10 10 -10 m50 34 l20 0 m-20 0 q10 0 10 -10 l0 -14 q0 -10 -10 -10 m-50 0 h10 m30 0 h10 m20 34 h10 m26 0 h10 m20 0 h10 m0 0 h86 m-116 0 l20 0 m-1 0 q-9 0 -9 -10 l0 -14 q0 -10 10 -10 m96 34 l20 0 m-20 0 q10 0 10 -10 l0 -14 q0 -10 -10 -10 m-96 0 h10 m76 0 h10 m20 34 h10 m26 0 h10 m20 0 h10 m0 0 h40 m-70 0 l20 0 m-1 0 q-9 0 -9 -10 l0 -14 q0 -10 10 -10 m50 34 l20 0 m-20 0 q10 0 10 -10 l0 -14 q0 -10 -10 -10 m-50 0 h10 m30 0 h10 m23 34 h-3"/>
   <polygon points="483 51 491 47 491 55"/>
   <polygon points="483 51 475 47 475 55"/>
</svg>
